<?xml version="1.0" encoding="utf-8"?>
<!-- Svg Vector Icons : http://www.onlinewebfonts.com/icon -->
<!DOCTYPE svg PUBLIC "-//W3C//DTD SVG 1.1//EN" "http://www.w3.org/Graphics/SVG/1.1/DTD/svg11.dtd">
<svg version="1.1" xmlns="http://www.w3.org/2000/svg" xmlns:xlink="http://www.w3.org/1999/xlink" x="0px" y="0px" viewBox="0 0 1000 1000" enable-background="new 0 0 1000 1000" xml:space="preserve">
<metadata> Svg Vector Icons : http://www.onlinewebfonts.com/icon </metadata>
<g><g transform="translate(0.000000,416.000000) scale(0.100000,-0.100000)"><path d="M4618.2,3118.9c-769.3-78.5-1553.9-405.7-2151-897.5c-214.3-176.1-667.9-656.4-641.1-677.4c3.8-1.9,57.4-42.1,120.6-90l111-82.3l78.5,93.8c732.9,887.9,1739.6,1368.3,2868.6,1368.3c1117.6,0,2129.9-484.2,2861-1368.3l78.5-93.8l72.7,51.7c42.1,28.7,95.7,68.9,120.6,89.9l44,38.3l-107.2,132c-145.4,176.1-484.1,501.4-665.9,639.2C6604.6,2925.6,5582.7,3216.5,4618.2,3118.9z"/><path d="M105.7,1385.1l5.7-838.2l53.6-103.3c30.6-57.4,97.6-143.5,149.3-193.3l93.8-89.9v-1823.7c0-1341.5,5.7-1842.9,23-1898.4c47.8-162.7,275.6-340.6,436.3-340.6c153.1,1.9,334.9,130.1,413.4,296.6l45.9,95.7v1835.2V160.4l97.6,91.9c53.6,53.6,118.6,141.6,147.3,202.9l51.7,111l5.7,828.6l5.7,826.7h-155h-153.1v-807.6c0-891.8,0-891.8-120.6-979.8c-49.8-36.4-82.3-40.2-338.7-40.2c-256.4,0-289,3.8-338.7,40.2c-120.6,88-120.6,88-120.6,979.8v807.6H255H100L105.7,1385.1z M1020.5-1720.8c0-1774,0-1798.9-38.3-1837.1c-24.9-24.9-63.1-38.3-114.8-38.3c-51.7,0-89.9,13.4-114.8,38.3c-38.3,38.3-38.3,63.1-38.3,1837.1V78.1h153.1h153.1V-1720.8z"/><path d="M714.3,1455.9V690.5h153.1h153.1v765.5v765.5H867.4H714.3V1455.9z"/><path d="M4675.6,2200.4C2882.5,1997.5,1625.2,258,2013.7-1487.3c200.9-899.4,809.5-1672.6,1643.9-2089.8c732.9-365.5,1563.5-421,2330.9-153.1c884.2,310,1592.2,1018.1,1902.2,1902.2C8158.5-1060.6,8103-230,7737.5,502.9C7161.5,1655,5923.4,2342,4675.6,2200.4z M5322.5,1899.9l82.3-13.4L4294.8,407.2c-610.5-813.3-1115.7-1496.5-1121.4-1517.6c-15.3-47.8,21.1-143.5,63.1-164.6c19.1-7.6,378.9-19.1,801.8-24.9l767.4-9.6l-269.8-1085.1c-149.3-595.1-277.5-1088.9-283.2-1094.6c-17.2-17.2-329.2,97.6-505.2,183.7c-246.9,124.4-484.2,298.5-698.5,512.9c-388.5,386.6-631.5,834.4-750.2,1383.6c-61.2,283.2-61.2,853.5,0,1136.7c183.7,845.8,700.4,1519.5,1456.3,1900.3c262.2,130.1,602.8,231.6,930.1,273.7C4784.7,1915.2,5236.3,1913.3,5322.5,1899.9z M5932.9,1760.2c390.4-137.8,721.4-348.3,1020-648.7c390.4-390.4,631.5-834.4,750.2-1383.6c61.2-281.3,61.2-851.6,0-1136.7c-118.7-545.4-363.6-998.9-750.2-1383.6c-382.7-384.6-843.9-635.4-1374-746.3c-210.5-44-717.6-70.8-880.3-44l-101.4,15.3l1109.9,1481.2C6317.6-1273,6822.8-589.8,6830.4-568.7c17.2,53.6-24.9,141.6-80.4,166.5c-32.5,13.4-283.2,21.1-803.8,21.1c-711.9,0-755.9,1.9-746.3,34.4c5.8,17.2,126.3,501.4,269.8,1075.5c273.7,1096.5,271.8,1090.8,285.2,1090.8C5758.8,1819.5,5839.2,1792.8,5932.9,1760.2z M5058.4,307.7c-183.7-734.9-210.5-855.4-191.4-901.3c13.4-28.7,36.4-59.3,53.6-68.9c19.1-7.7,352.1-19.1,744.4-24.9l710-9.6l-815.2-1088.9c-449.7-597.1-819.1-1079.3-822.9-1067.9c-1.9,9.6,89.9,400,206.7,865c185.6,736.8,210.5,855.4,191.4,901.4c-13.4,28.7-36.3,59.3-53.6,68.9c-19.1,7.7-352.1,19.1-744.4,24.9L3625-984l817.1,1088.9c447.8,597.1,819.1,1079.3,821,1069.8C5267,1165.1,5175.1,774.7,5058.4,307.7z"/><path d="M9538.3,2200.4c-143.5-24.9-342.5-112.9-488-216.2c-214.3-153.1-371.2-363.6-466.9-627.7l-51.7-139.7l-5.7-945.4c-3.9-520.5,0-968.3,5.7-995.1c7.7-26.8,111-149.3,231.6-269.8l218.2-222v-1134.8c0-815.2,5.8-1157.8,23-1211.4c47.8-162.7,275.5-340.6,436.3-340.6c153.1,1.9,334.9,130.1,413.3,296.6l45.9,95.7v2797.8c0,2009.4-5.7,2811.2-21,2843.7C9838.8,2217.6,9752.7,2234.8,9538.3,2200.4z M9593.8-811.8c0-2683,0-2707.9-38.3-2746.1c-24.9-24.9-63.1-38.3-114.8-38.3c-51.7,0-89.9,13.4-114.8,38.3c-38.3,38.3-38.3,63.1-38.3,1234.3c0,1002.8-3.8,1205.6-26.8,1249.6c-15.3,28.7-118.6,141.6-229.6,252.6l-202.9,200.9v118.7v120.6h153.1h153.1v153.1V-75h-153.1h-153.1V78.1v153.1h153.1h153.1v153.1v153.1h-153.1h-153.1v153.1v153.1h153.1h153.1v153.1v153.1h-145.4h-147.3l13.4,78.5c28.7,181.8,185.6,411.4,369.4,535.8c91.8,65.1,256.4,130.1,327.2,132h42.1V-811.8z"/><path d="M1967.8-3119.7c-42.1-32.5-91.9-70.8-112.9-84.2c-34.5-24.9-30.6-32.5,61.2-147.4c114.8-141.6,422.9-447.8,591.3-585.6c336.8-275.6,832.5-539.7,1272.6-683.2c323.4-103.3,587.5-156.9,945.4-185.6c912.8-76.6,1909.9,222,2683,801.8c181.8,137.8,520.5,463.1,665.9,639.2c103.3,126.3,107.2,135.9,72.7,158.8c-19.1,15.3-68.9,53.6-111,86.1c-40.2,32.5-80.4,59.3-88,59.3c-7.7,0-63.1-59.3-122.5-130.1c-222-271.7-532-545.4-853.5-754c-1169.3-759.7-2772.9-759.7-3942.2,0c-321.5,208.6-631.5,482.2-853.5,754c-59.3,70.8-112.9,130.1-120.6,130.1C2050-3060.4,2009.9-3087.1,1967.8-3119.7z"/></g></g>
</svg>